<svg width="325" height="84" viewBox="0 0 325 84" fill="none" xmlns="http://www.w3.org/2000/svg">
<path d="M42 84C65.196 84 84 65.196 84 42C84 18.804 65.196 0 42 0C18.804 0 0 18.804 0 42C0 65.196 18.804 84 42 84Z" fill="#1F2023"/>
<path d="M0 42C16.1928 24.64 30.6145 19.04 42 19.04C53.3855 19.04 67.8072 24.64 84 42C67.8072 34.72 53.3855 31.36 42 31.36C30.6145 31.36 16.1928 34.72 0 42Z" fill="white"/>
<path d="M0 42C16.1928 59.36 30.6145 64.96 42 64.96C53.3855 64.96 67.8072 59.36 84 42C67.8072 49.28 53.3855 52.64 42 52.64C30.6145 52.64 16.1928 49.28 0 42Z" fill="white"/>
<mask id="mask0_2_2" style="mask-type:luminance" maskUnits="userSpaceOnUse" x="25" y="25" width="34" height="34">
<path d="M42 58.8C50.9691 58.8 58.24 51.2784 58.24 42C58.24 32.7216 50.9691 25.2 42 25.2C33.0309 25.2 25.76 32.7216 25.76 42C25.76 51.2784 33.0309 58.8 42 58.8Z" fill="white"/>
</mask>
<g mask="url(#mask0_2_2)">
<path d="M42 58.8C50.9691 58.8 58.24 51.2784 58.24 42C58.24 32.7216 50.9691 25.2 42 25.2C33.0309 25.2 25.76 32.7216 25.76 42C25.76 51.2784 33.0309 58.8 42 58.8Z" fill="#F5F5F5"/>
<path opacity="0.22" d="M42 57C50.0081 57 56.5 50.2843 56.5 42C56.5 33.7157 50.0081 27 42 27C33.9919 27 27.5 33.7157 27.5 42C27.5 50.2843 33.9919 57 42 57Z" stroke="#111111" stroke-width="0.8"/>
<path opacity="0.32" d="M42 53.4C48.0862 53.4 53.02 48.2961 53.02 42C53.02 35.704 48.0862 30.6 42 30.6C35.9138 30.6 30.98 35.704 30.98 42C30.98 48.2961 35.9138 53.4 42 53.4Z" stroke="#111111" stroke-width="0.8"/>
<path opacity="0.45" d="M42 49.2C45.8439 49.2 48.96 45.9765 48.96 42C48.96 38.0236 45.8439 34.8 42 34.8C38.1561 34.8 35.04 38.0236 35.04 42C35.04 45.9765 38.1561 49.2 42 49.2Z" stroke="#111111"/>
<path opacity="0.18" d="M26.34 42H57.66" stroke="#111111" stroke-width="0.5"/>
<path opacity="0.18" d="M42 25.8V58.2" stroke="#111111" stroke-width="0.5"/>
<path opacity="0.18" d="M42 42V27C44.5452 27.0001 47.0456 27.6932 49.2498 29.0097C51.454 30.3262 53.2844 32.2198 54.557 34.5L42 42Z" fill="#C0272D"/>
<path opacity="0.3" d="M42 42V30.6C43.934 30.6005 45.8338 31.1275 47.5085 32.128C49.1833 33.1285 50.574 34.5674 51.541 36.3L42 42Z" fill="#C0272D"/>
<path opacity="0.42" d="M42 42V34.8C43.2225 34.7992 44.4236 35.1315 45.4825 35.7635C46.5414 36.3955 47.4208 37.3048 48.032 38.4L42 42Z" fill="#C0272D"/>
<path opacity="0.85" d="M42 42L54.557 34.5" stroke="#C0272D" stroke-width="1.3"/>
<path d="M35.04 33.75C35.4404 33.75 35.765 33.4142 35.765 33C35.765 32.5858 35.4404 32.25 35.04 32.25C34.6396 32.25 34.315 32.5858 34.315 33C34.315 33.4142 34.6396 33.75 35.04 33.75Z" fill="#C0272D"/>
<path opacity="0.75" d="M46.06 52.29C46.4284 52.29 46.727 51.9811 46.727 51.6C46.727 51.2189 46.4284 50.91 46.06 50.91C45.6916 50.91 45.393 51.2189 45.393 51.6C45.393 51.9811 45.6916 52.29 46.06 52.29Z" fill="#C0272D"/>
<path opacity="0.6" d="M32.14 46.2C32.4603 46.2 32.72 45.9314 32.72 45.6C32.72 45.2686 32.4603 45 32.14 45C31.8197 45 31.56 45.2686 31.56 45.6C31.56 45.9314 31.8197 46.2 32.14 46.2Z" fill="#C0272D"/>
<path opacity="0.7" d="M50.7 39.81C50.9722 39.81 51.193 39.5817 51.193 39.3C51.193 39.0183 50.9722 38.79 50.7 38.79C50.4277 38.79 50.207 39.0183 50.207 39.3C50.207 39.5817 50.4277 39.81 50.7 39.81Z" fill="#444444"/>
<path opacity="0.55" d="M39.68 55.05C39.9202 55.05 40.115 54.8485 40.115 54.6C40.115 54.3515 39.9202 54.15 39.68 54.15C39.4398 54.15 39.245 54.3515 39.245 54.6C39.245 54.8485 39.4398 55.05 39.68 55.05Z" fill="#444444"/>
<path opacity="0.65" d="M35.04 34.5C35.8408 34.5 36.49 33.8284 36.49 33C36.49 32.1716 35.8408 31.5 35.04 31.5C34.2392 31.5 33.59 32.1716 33.59 33C33.59 33.8284 34.2392 34.5 35.04 34.5Z" stroke="#C0272D" stroke-width="0.6"/>
<path opacity="0.35" d="M35.04 35.4C36.3213 35.4 37.36 34.3255 37.36 33C37.36 31.6745 36.3213 30.6 35.04 30.6C33.7587 30.6 32.72 31.6745 32.72 33C32.72 34.3255 33.7587 35.4 35.04 35.4Z" stroke="#C0272D" stroke-width="0.45"/>
<path d="M42 43.35C42.7207 43.35 43.305 42.7456 43.305 42C43.305 41.2544 42.7207 40.65 42 40.65C41.2793 40.65 40.695 41.2544 40.695 42C40.695 42.7456 41.2793 43.35 42 43.35Z" fill="#1F2023"/>
<path d="M42 42.66C42.3524 42.66 42.638 42.3645 42.638 42C42.638 41.6355 42.3524 41.34 42 41.34C41.6476 41.34 41.362 41.6355 41.362 42C41.362 42.3645 41.6476 42.66 42 42.66Z" fill="#F5F5F5"/>
<path d="M42 39.9C41.188 39.9 40.695 40.62 40.695 41.31C40.695 42.36 42 44.1 42 44.1C42 44.1 43.305 42.36 43.305 41.31C43.305 40.62 42.812 39.9 42 39.9Z" fill="#C0272D"/>
<path d="M42 41.67C42.2242 41.67 42.406 41.482 42.406 41.25C42.406 41.0181 42.2242 40.83 42 40.83C41.7758 40.83 41.594 41.0181 41.594 41.25C41.594 41.482 41.7758 41.67 42 41.67Z" fill="#F5F5F5"/>
</g>
<path d="M152 20H100C99.4477 20 99 20.4477 99 21V27C99 27.5523 99.4477 28 100 28H152C152.552 28 153 27.5523 153 27V21C153 20.4477 152.552 20 152 20Z" fill="#1F2023"/>
<path d="M130 20H124C123.448 20 123 20.4477 123 21V63C123 63.5523 123.448 64 124 64H130C130.552 64 131 63.5523 131 63V21C131 20.4477 130.552 20 130 20Z" fill="#1F2023"/>
<path d="M169 20H163C162.448 20 162 20.4477 162 21V63C162 63.5523 162.448 64 163 64H169C169.552 64 170 63.5523 170 63V21C170 20.4477 169.552 20 169 20Z" fill="#1F2023"/>
<path d="M192 20H186C185.448 20 185 20.4477 185 21V63C185 63.5523 185.448 64 186 64H192C192.552 64 193 63.5523 193 63V21C193 20.4477 192.552 20 192 20Z" fill="#1F2023"/>
<path d="M220 38H186C185.448 38 185 38.4477 185 39V45C185 45.5523 185.448 46 186 46H220C220.552 46 221 45.5523 221 45V39C221 38.4477 220.552 38 220 38Z" fill="#1F2023"/>
<path d="M220 20H214C213.448 20 213 20.4477 213 21V63C213 63.5523 213.448 64 214 64H220C220.552 64 221 63.5523 221 63V21C221 20.4477 220.552 20 220 20Z" fill="#1F2023"/>
<path d="M243 20H237C236.448 20 236 20.4477 236 21V63C236 63.5523 236.448 64 237 64H243C243.552 64 244 63.5523 244 63V21C244 20.4477 243.552 20 243 20Z" fill="#1F2023"/>
<path d="M271 56H237C236.448 56 236 56.4477 236 57V63C236 63.5523 236.448 64 237 64H271C271.552 64 272 63.5523 272 63V57C272 56.4477 271.552 56 271 56Z" fill="#1F2023"/>
<path d="M303 64C315.15 64 325 54.1503 325 42C325 29.8497 315.15 20 303 20C290.85 20 281 29.8497 281 42C281 54.1503 290.85 64 303 64Z" fill="#C0272D"/>
</svg>
