<svg width="680" height="520" viewBox="0 0 680 520" fill="none" xmlns="http://www.w3.org/2000/svg">
<path d="M340 325C422.843 325 490 257.843 490 175C490 92.1573 422.843 25 340 25C257.157 25 190 92.1573 190 175C190 257.843 257.157 325 340 325Z" fill="#1F2023"/>
<path d="M190 175C247.831 113 299.337 93 340 93C380.663 93 432.169 113 490 175C432.169 149 380.663 137 340 137C299.337 137 247.831 149 190 175Z" fill="white"/>
<path d="M190 175C247.831 237 299.337 257 340 257C380.663 257 432.169 237 490 175C432.169 201 380.663 213 340 213C299.337 213 247.831 201 190 175Z" fill="white"/>
<mask id="mask0_1_2" style="mask-type:luminance" maskUnits="userSpaceOnUse" x="282" y="115" width="116" height="120">
<path d="M340 235C372.033 235 398 208.137 398 175C398 141.863 372.033 115 340 115C307.967 115 282 141.863 282 175C282 208.137 307.967 235 340 235Z" fill="white"/>
</mask>
<g mask="url(#mask0_1_2)">
<path d="M340 235C372.033 235 398 208.137 398 175C398 141.863 372.033 115 340 115C307.967 115 282 141.863 282 175C282 208.137 307.967 235 340 235Z" fill="#F5F5F5"/>
<path opacity="0.22" d="M340 228.571C368.6 228.571 391.786 204.587 391.786 175C391.786 145.413 368.6 121.429 340 121.429C311.4 121.429 288.214 145.413 288.214 175C288.214 204.587 311.4 228.571 340 228.571Z" stroke="#111111" stroke-width="0.8"/>
<path opacity="0.32" d="M340 215.714C361.736 215.714 379.357 197.486 379.357 175C379.357 152.514 361.736 134.286 340 134.286C318.264 134.286 300.643 152.514 300.643 175C300.643 197.486 318.264 215.714 340 215.714Z" stroke="#111111" stroke-width="0.8"/>
<path opacity="0.45" d="M340 200.714C353.728 200.714 364.857 189.202 364.857 175C364.857 160.798 353.728 149.286 340 149.286C326.272 149.286 315.143 160.798 315.143 175C315.143 189.202 326.272 200.714 340 200.714Z" stroke="#111111"/>
<path opacity="0.18" d="M284.071 175H395.929" stroke="#111111" stroke-width="0.5"/>
<path opacity="0.18" d="M340 117.143V232.857" stroke="#111111" stroke-width="0.5"/>
<path opacity="0.18" d="M340 175V121.429C349.09 121.429 358.02 123.904 365.892 128.606C373.764 133.308 380.301 140.071 384.846 148.214L340 175Z" fill="#C0272D"/>
<path opacity="0.3" d="M340 175V134.286C346.907 134.287 353.692 136.169 359.673 139.743C365.655 143.316 370.621 148.455 374.075 154.643L340 175Z" fill="#C0272D"/>
<path opacity="0.42" d="M340 175V149.286C344.366 149.283 348.656 150.47 352.438 152.727C356.219 154.984 359.36 158.231 361.543 162.143L340 175Z" fill="#C0272D"/>
<path opacity="0.85" d="M340 175L384.846 148.214" stroke="#C0272D" stroke-width="1.3"/>
<path d="M315.143 145.536C316.573 145.536 317.732 144.336 317.732 142.857C317.732 141.378 316.573 140.179 315.143 140.179C313.713 140.179 312.554 141.378 312.554 142.857C312.554 144.336 313.713 145.536 315.143 145.536Z" fill="#C0272D"/>
<path opacity="0.75" d="M354.5 211.75C355.816 211.75 356.882 210.647 356.882 209.286C356.882 207.925 355.816 206.821 354.5 206.821C353.184 206.821 352.118 207.925 352.118 209.286C352.118 210.647 353.184 211.75 354.5 211.75Z" fill="#C0272D"/>
<path opacity="0.6" d="M304.786 190C305.93 190 306.857 189.041 306.857 187.857C306.857 186.674 305.93 185.714 304.786 185.714C303.642 185.714 302.714 186.674 302.714 187.857C302.714 189.041 303.642 190 304.786 190Z" fill="#C0272D"/>
<path opacity="0.7" d="M371.071 167.179C372.044 167.179 372.832 166.363 372.832 165.357C372.832 164.351 372.044 163.536 371.071 163.536C370.099 163.536 369.311 164.351 369.311 165.357C369.311 166.363 370.099 167.179 371.071 167.179Z" fill="#444444"/>
<path opacity="0.55" d="M331.714 221.607C332.572 221.607 333.268 220.888 333.268 220C333.268 219.112 332.572 218.393 331.714 218.393C330.856 218.393 330.161 219.112 330.161 220C330.161 220.888 330.856 221.607 331.714 221.607Z" fill="#444444"/>
<path opacity="0.65" d="M315.143 148.214C318.003 148.214 320.321 145.816 320.321 142.857C320.321 139.898 318.003 137.5 315.143 137.5C312.283 137.5 309.964 139.898 309.964 142.857C309.964 145.816 312.283 148.214 315.143 148.214Z" stroke="#C0272D" stroke-width="0.6"/>
<path opacity="0.35" d="M315.143 151.429C319.719 151.429 323.429 147.591 323.429 142.857C323.429 138.123 319.719 134.286 315.143 134.286C310.567 134.286 306.857 138.123 306.857 142.857C306.857 147.591 310.567 151.429 315.143 151.429Z" stroke="#C0272D" stroke-width="0.45"/>
<path d="M340 179.821C342.574 179.821 344.661 177.663 344.661 175C344.661 172.337 342.574 170.179 340 170.179C337.426 170.179 335.339 172.337 335.339 175C335.339 177.663 337.426 179.821 340 179.821Z" fill="#1F2023"/>
<path d="M340 177.357C341.258 177.357 342.279 176.302 342.279 175C342.279 173.698 341.258 172.643 340 172.643C338.742 172.643 337.721 173.698 337.721 175C337.721 176.302 338.742 177.357 340 177.357Z" fill="#F5F5F5"/>
<path d="M340 167.5C337.1 167.5 335.339 170.071 335.339 172.536C335.339 176.286 340 182.5 340 182.5C340 182.5 344.661 176.286 344.661 172.536C344.661 170.071 342.9 167.5 340 167.5Z" fill="#C0272D"/>
<path d="M340 173.821C340.801 173.821 341.45 173.15 341.45 172.321C341.45 171.493 340.801 170.821 340 170.821C339.199 170.821 338.55 171.493 338.55 172.321C338.55 173.15 339.199 173.821 340 173.821Z" fill="#F5F5F5"/>
</g>
<path d="M231.364 375H136.818C135.814 375 135 375.814 135 376.818V387.727C135 388.731 135.814 389.545 136.818 389.545H231.364C232.368 389.545 233.182 388.731 233.182 387.727V376.818C233.182 375.814 232.368 375 231.364 375Z" fill="#1F2023"/>
<path d="M191.364 375H180.455C179.45 375 178.636 375.814 178.636 376.818V453.182C178.636 454.186 179.45 455 180.455 455H191.364C192.368 455 193.182 454.186 193.182 453.182V376.818C193.182 375.814 192.368 375 191.364 375Z" fill="#1F2023"/>
<path d="M262.273 375H251.364C250.359 375 249.545 375.814 249.545 376.818V453.182C249.545 454.186 250.359 455 251.364 455H262.273C263.277 455 264.091 454.186 264.091 453.182V376.818C264.091 375.814 263.277 375 262.273 375Z" fill="#1F2023"/>
<path d="M304.091 375H293.182C292.178 375 291.364 375.814 291.364 376.818V453.182C291.364 454.186 292.178 455 293.182 455H304.091C305.095 455 305.909 454.186 305.909 453.182V376.818C305.909 375.814 305.095 375 304.091 375Z" fill="#1F2023"/>
<path d="M355 407.727H293.182C292.178 407.727 291.364 408.541 291.364 409.545V420.455C291.364 421.459 292.178 422.273 293.182 422.273H355C356.004 422.273 356.818 421.459 356.818 420.455V409.545C356.818 408.541 356.004 407.727 355 407.727Z" fill="#1F2023"/>
<path d="M355 375H344.091C343.087 375 342.273 375.814 342.273 376.818V453.182C342.273 454.186 343.087 455 344.091 455H355C356.004 455 356.818 454.186 356.818 453.182V376.818C356.818 375.814 356.004 375 355 375Z" fill="#1F2023"/>
<path d="M396.818 375H385.909C384.905 375 384.091 375.814 384.091 376.818V453.182C384.091 454.186 384.905 455 385.909 455H396.818C397.822 455 398.636 454.186 398.636 453.182V376.818C398.636 375.814 397.822 375 396.818 375Z" fill="#1F2023"/>
<path d="M447.727 440.455H385.909C384.905 440.455 384.091 441.269 384.091 442.273V453.182C384.091 454.186 384.905 455 385.909 455H447.727C448.731 455 449.545 454.186 449.545 453.182V442.273C449.545 441.269 448.731 440.455 447.727 440.455Z" fill="#1F2023"/>
<path d="M505.909 455C528 455 545.909 437.091 545.909 415C545.909 392.909 528 375 505.909 375C483.818 375 465.909 392.909 465.909 415C465.909 437.091 483.818 455 505.909 455Z" fill="#C0272D"/>
</svg>
