<svg width="84" height="84" viewBox="0 0 84 84" fill="none" xmlns="http://www.w3.org/2000/svg">
  <rect width="84" height="84" rx="20" fill="#FFFFFF" />
  <path d="M0 42C16.1928 24.64 30.6145 19.04 42 19.04C53.3855 19.04 67.8072 24.64 84 42C67.8072 34.72 53.3855 31.36 42 31.36C30.6145 31.36 16.1928 34.72 0 42Z" fill="#1F2023" />
  <path d="M0 42C16.1928 59.36 30.6145 64.96 42 64.96C53.3855 64.96 67.8072 59.36 84 42C67.8072 49.28 53.3855 52.64 42 52.64C30.6145 52.64 16.1928 49.28 0 42Z" fill="#1F2023" />
  <circle cx="42" cy="42" r="16.8" fill="#1F2023" />
  <path d="M42 42V27C44.5452 27 47.0456 27.6932 49.2498 29.0097C51.454 30.3262 53.2844 32.2198 54.557 34.5L42 42Z" fill="#C0272D" opacity="0.28" />
  <path d="M42 42V30.6C43.934 30.6 45.8338 31.1275 47.5085 32.128C49.1833 33.1285 50.574 34.5674 51.541 36.3L42 42Z" fill="#C0272D" opacity="0.46" />
  <line x1="42" y1="42" x2="54.557" y2="34.5" stroke="#C0272D" stroke-width="1.6" />
  <circle cx="42" cy="42" r="2" fill="#FFFFFF" />
</svg>
